<svg width="310" height="310" viewBox="0 0 310 310" fill="none" xmlns="http://www.w3.org/2000/svg">
<path d="M44.027 214.651C42.4232 214.651 41.0781 215.117 40.1986 216.255C39.3191 215.117 37.9222 214.651 36.3702 214.651C35.4907 214.651 34.5594 214.858 33.6799 215.324C34.1455 214.444 34.3525 213.513 34.3525 212.634C34.3525 211.03 33.8869 209.685 32.7487 208.805C33.8869 207.926 34.3525 206.529 34.3525 204.977C34.3525 201.821 31.8692 199.337 28.7133 199.337C27.1095 199.337 25.7644 199.803 24.8848 200.941C24.0053 199.803 22.6085 199.337 21.0564 199.337C20.1769 199.337 19.2457 199.544 18.3662 200.01C18.8318 199.131 19.0387 198.199 19.0387 197.32C19.0387 195.716 18.5731 194.371 17.4349 193.491C18.5731 192.612 19.0387 191.215 19.0387 189.663C19.0387 188.783 18.8318 188.059 18.5731 187.387C39.3191 171.814 77.4483 172.073 103.833 193.026C89.1923 207.926 67.0494 216.255 44.9583 214.703H44.0788L44.027 214.651ZM34.3525 97.5734C34.3525 96.6939 34.1455 95.7627 33.6799 94.8832C34.5594 95.3488 35.4907 95.5557 36.3702 95.5557C37.974 95.5557 39.3191 95.0901 40.1986 93.9519C41.0781 95.0901 42.475 95.5557 44.027 95.5557H44.9065C66.9977 93.9519 89.1405 102.333 103.782 117.233C77.3965 138.238 39.2674 138.445 18.5214 122.872C18.7283 122.2 18.987 121.527 18.987 120.596C18.987 118.992 18.5214 117.647 17.3832 116.767C18.5214 115.888 18.987 114.491 18.987 112.939C18.987 112.059 18.78 111.128 18.3144 110.249C19.1939 110.714 20.1252 110.921 21.0047 110.921C22.6085 110.921 23.9536 110.456 24.8331 109.317C25.7126 110.456 27.1095 110.921 28.6616 110.921C31.8174 110.921 34.3007 108.438 34.3007 105.282C34.3007 103.678 33.8351 102.333 32.6969 101.454C33.8351 100.574 34.3007 99.1772 34.3007 97.6252M276.113 212.685C276.113 213.565 276.32 214.496 276.786 215.376C275.906 214.91 274.975 214.703 274.095 214.703C272.492 214.703 271.147 215.169 270.267 216.307C269.388 215.169 267.991 214.703 266.439 214.703H265.559C243.468 216.307 221.325 207.926 206.684 193.026C233.069 172.021 271.198 171.814 291.944 187.387C291.737 188.059 291.479 188.732 291.479 189.663C291.479 191.267 291.944 192.612 293.082 193.491C291.944 194.371 291.479 195.768 291.479 197.32C291.479 198.199 291.686 199.131 292.151 200.01C291.272 199.544 290.34 199.337 289.461 199.337C287.857 199.337 286.512 199.803 285.633 200.941C284.753 199.803 283.356 199.337 281.804 199.337C278.648 199.337 276.165 201.821 276.165 204.977C276.165 206.58 276.631 207.926 277.769 208.805C276.631 209.685 276.165 211.081 276.165 212.634M266.49 95.5557C268.094 95.5557 269.439 95.0901 270.319 93.9519C271.198 95.0901 272.595 95.5557 274.147 95.5557C275.027 95.5557 275.958 95.3488 276.837 94.8832C276.372 95.7627 276.165 96.6939 276.165 97.5734C276.165 99.1772 276.631 100.522 277.769 101.402C276.631 102.281 276.165 103.678 276.165 105.23C276.165 108.386 278.648 110.869 281.804 110.869C283.408 110.869 284.753 110.404 285.633 109.266C286.512 110.404 287.909 110.869 289.461 110.869C290.34 110.869 291.272 110.663 292.151 110.197C291.686 111.076 291.479 112.008 291.479 112.887C291.479 114.491 291.944 115.836 293.082 116.716C291.944 117.595 291.479 118.992 291.479 120.544C291.479 121.424 291.686 122.148 291.944 122.82C271.198 138.393 233.069 138.134 206.684 117.181C221.325 102.281 243.468 93.9519 265.559 95.504H266.439L266.49 95.5557ZM214.806 266.335C214.806 267.939 215.272 269.284 216.41 270.164C215.272 271.043 214.806 272.44 214.806 273.992C214.806 274.871 215.013 275.803 215.479 276.682C214.599 276.217 213.668 276.01 212.789 276.01C211.185 276.01 209.84 276.475 208.96 277.613C208.081 276.475 206.684 276.01 205.132 276.01C201.976 276.01 199.493 278.493 199.493 281.649C199.493 283.253 199.958 284.598 201.096 285.477C199.958 286.357 199.493 287.754 199.493 289.306C199.493 290.185 199.7 291.116 200.165 291.996C199.286 291.53 198.354 291.323 197.475 291.323C195.871 291.323 194.526 291.789 193.647 292.927C192.767 291.789 191.37 291.323 189.818 291.323C188.939 291.323 188.214 291.53 187.542 291.789C171.969 271.043 172.228 232.914 193.181 206.529C208.081 221.17 216.41 243.313 214.858 265.404V266.283L214.806 266.335ZM97.7286 276.01C96.8491 276.01 95.9179 276.217 95.0384 276.682C95.504 275.803 95.711 274.871 95.711 273.992C95.711 272.388 95.2453 271.043 94.1071 270.164C95.2453 269.284 95.711 267.887 95.711 266.335V265.456C94.1071 243.365 102.488 221.222 117.388 206.58C138.393 232.966 138.6 271.095 123.027 291.841C122.355 291.634 121.682 291.375 120.751 291.375C119.147 291.375 117.802 291.841 116.923 292.979C116.043 291.841 114.646 291.375 113.094 291.375C112.215 291.375 111.283 291.582 110.404 292.048C110.869 291.168 111.076 290.237 111.076 289.357C111.076 287.754 110.611 286.409 109.473 285.529C110.611 284.65 111.076 283.253 111.076 281.701C111.076 278.545 108.593 276.061 105.437 276.061C103.833 276.061 102.488 276.527 101.609 277.665C100.729 276.527 99.3324 276.061 97.7804 276.061M212.789 34.1973C213.668 34.1973 214.599 33.9903 215.479 33.5247C215.013 34.4042 214.806 35.3354 214.806 36.215C214.806 37.8188 215.272 39.1639 216.41 40.0434C215.272 40.9229 214.806 42.3198 214.806 43.8718V44.7513C216.41 66.8425 208.029 88.9853 193.129 103.626C172.124 77.2413 171.918 39.1122 187.49 18.3662C188.163 18.5731 188.835 18.8318 189.766 18.8318C191.37 18.8318 192.715 18.3662 193.595 17.228C194.474 18.3662 195.871 18.8318 197.423 18.8318C198.303 18.8318 199.234 18.6248 200.113 18.1592C199.648 19.0387 199.441 19.97 199.441 20.8495C199.441 22.4533 199.907 23.7984 201.045 24.6779C199.907 25.5574 199.441 26.9543 199.441 28.5063C199.441 31.6622 201.924 34.1455 205.08 34.1455C206.684 34.1455 208.029 33.6799 208.909 32.5417C209.788 33.6799 211.185 34.1455 212.737 34.1455M95.6592 43.8201C95.6592 42.2163 95.1936 40.8712 94.0554 39.9917C95.1936 39.1122 95.6592 37.7153 95.6592 36.1632C95.6592 35.2837 95.4523 34.3525 94.9867 33.473C95.8662 33.9386 96.7974 34.1455 97.6769 34.1455C99.2807 34.1455 100.626 33.6799 101.505 32.5417C102.385 33.6799 103.782 34.1455 105.334 34.1455C108.49 34.1455 110.973 31.6622 110.973 28.5063C110.973 26.9025 110.507 25.5574 109.369 24.6779C110.507 23.7984 110.973 22.4015 110.973 20.8495C110.973 19.97 110.766 19.0387 110.3 18.1592C111.18 18.6248 112.111 18.8318 112.991 18.8318C114.594 18.8318 115.94 18.3662 116.819 17.228C117.699 18.3662 119.095 18.8318 120.648 18.8318C121.527 18.8318 122.251 18.6248 122.924 18.3662C138.496 39.1122 138.238 77.2413 117.285 103.626C102.385 88.9853 94.0554 66.8425 95.6075 44.7513V43.8718L95.6592 43.8201ZM128.356 141.497C129.96 141.497 131.305 141.031 132.185 139.893C133.064 141.031 134.461 141.497 136.013 141.497C136.893 141.497 137.824 141.29 138.703 140.824C138.238 141.704 138.031 142.635 138.031 143.515C138.031 145.118 138.496 146.464 139.635 147.343C138.496 148.223 138.031 149.619 138.031 151.172C138.031 152.724 138.496 154.12 139.635 155C138.496 155.88 138.031 157.276 138.031 158.828C138.031 160.381 138.496 161.777 139.635 162.657C138.496 163.536 138.031 164.933 138.031 166.485C138.031 167.365 138.238 168.296 138.703 169.176C137.824 168.71 136.893 168.503 136.013 168.503H135.806C134.461 168.503 133.116 169.176 132.185 170.107C131.305 168.969 129.908 168.503 128.356 168.503C126.338 168.503 124.735 169.383 123.855 170.779L114.388 180.247C80.5524 151.844 28.6615 151.585 2.27637 177.298C0.931242 178.178 0 179.781 0 181.799C0 183.403 0.465621 184.748 1.60381 185.628C0.465621 186.507 0 187.904 0 189.456C0 191.008 0.465621 192.405 1.60381 193.284C0.465621 194.164 0 195.561 0 197.113C0 200.269 2.48331 202.752 5.63919 202.752C7.24299 202.752 8.58812 202.286 9.46762 201.148C10.3471 202.286 11.744 202.752 13.2961 202.752C14.1756 202.752 15.1068 202.545 15.9863 202.079C15.5207 202.959 15.3138 203.89 15.3138 204.77C15.3138 206.373 15.7794 207.719 16.9176 208.598C15.7794 209.478 15.3138 210.875 15.3138 212.427C15.3138 215.582 17.7971 218.066 20.9529 218.066C22.5567 218.066 23.9019 217.6 24.7814 216.462C25.6609 217.6 27.0577 218.066 28.6098 218.066C29.4893 218.066 30.4206 217.859 31.3001 217.393C30.8344 218.273 30.6275 219.204 30.6275 220.083C30.6275 221.687 31.0931 223.032 32.2313 223.912C31.0931 224.791 30.6275 226.188 30.6275 227.74C30.6275 230.896 33.1108 233.38 36.2667 233.38C37.8705 233.38 39.2156 232.914 40.0951 231.776C40.9746 232.655 42.1128 233.121 43.251 233.38C57.2196 234.518 70.9813 232.241 83.3979 226.602C77.7587 239.019 75.4823 252.78 76.6205 266.749C76.8274 267.887 77.2931 269.025 78.2243 269.905C77.0861 270.784 76.6205 272.181 76.6205 273.733C76.6205 276.889 79.1038 279.373 82.2597 279.373C83.8635 279.373 85.2086 278.907 86.0881 277.769C86.9676 278.907 88.3645 279.373 89.9166 279.373C90.7961 279.373 91.7273 279.166 92.6068 278.7C92.1412 279.579 91.9343 280.511 91.9343 281.39C91.9343 282.994 92.3999 284.339 93.5381 285.219C92.3999 286.098 91.9343 287.495 91.9343 289.047C91.9343 292.203 94.4176 294.686 97.5734 294.686C99.1772 294.686 100.522 294.221 101.402 293.082C102.281 294.221 103.678 294.686 105.23 294.686C106.11 294.686 107.041 294.479 107.921 294.014C107.455 294.893 107.248 295.824 107.248 296.704C107.248 298.308 107.714 299.653 108.852 300.532C107.714 301.412 107.248 302.809 107.248 304.361C107.248 307.517 109.731 310 112.887 310C114.491 310 115.836 309.534 116.716 308.396C117.595 309.534 118.992 310 120.544 310C122.096 310 123.493 309.534 124.373 308.396C125.252 309.534 126.649 310 128.201 310C130.219 310 131.822 309.121 132.702 307.724C158.415 281.338 158.208 229.448 129.753 195.612L139.221 186.145C140.566 185.265 141.497 183.662 141.497 181.644V181.437C141.497 180.092 140.824 178.747 139.893 177.815C141.031 176.936 141.497 175.539 141.497 173.987C141.497 173.107 141.29 172.176 140.824 171.297C141.704 171.762 142.635 171.969 143.515 171.969C145.118 171.969 146.464 171.504 147.343 170.365C148.223 171.504 149.619 171.969 151.172 171.969C152.724 171.969 154.121 171.504 155 170.365C155.88 171.504 157.276 171.969 158.828 171.969C160.381 171.969 161.777 171.504 162.657 170.365C163.536 171.504 164.933 171.969 166.485 171.969C167.365 171.969 168.296 171.762 169.176 171.297C168.71 172.176 168.503 173.107 168.503 173.987C168.503 175.591 168.969 176.936 170.107 177.815C168.969 178.695 168.503 180.092 168.503 181.644C168.503 183.662 169.383 185.265 170.779 186.145L180.247 195.612C151.844 229.448 151.585 281.338 177.298 307.724C178.178 309.069 179.781 310 181.799 310C183.403 310 184.748 309.534 185.627 308.396C186.507 309.534 187.904 310 189.456 310C191.008 310 192.405 309.534 193.284 308.396C194.164 309.534 195.561 310 197.113 310C200.269 310 202.752 307.517 202.752 304.361C202.752 302.757 202.286 301.412 201.148 300.532C202.286 299.653 202.752 298.256 202.752 296.704C202.752 295.824 202.545 294.893 202.079 294.014C202.959 294.479 203.89 294.686 204.77 294.686C206.373 294.686 207.719 294.221 208.598 293.082C209.478 294.221 210.874 294.686 212.427 294.686C215.582 294.686 218.066 292.203 218.066 289.047C218.066 287.443 217.6 286.098 216.462 285.219C217.6 284.339 218.066 282.942 218.066 281.39C218.066 280.511 217.859 279.579 217.393 278.7C218.273 279.166 219.204 279.373 220.083 279.373C221.687 279.373 223.032 278.907 223.912 277.769C224.791 278.907 226.188 279.373 227.74 279.373C230.896 279.373 233.379 276.889 233.379 273.733C233.379 272.13 232.914 270.784 231.776 269.905C232.655 269.025 233.121 267.887 233.379 266.749C234.518 252.78 232.241 239.019 226.602 226.602C239.019 232.241 252.78 234.518 266.749 233.38C267.887 233.173 269.025 232.707 269.905 231.776C270.784 232.914 272.181 233.38 273.733 233.38C276.889 233.38 279.373 230.896 279.373 227.74C279.373 226.137 278.907 224.791 277.769 223.912C278.907 223.032 279.373 221.636 279.373 220.083C279.373 219.204 279.166 218.273 278.7 217.393C279.579 217.859 280.511 218.066 281.39 218.066C282.994 218.066 284.339 217.6 285.219 216.462C286.098 217.6 287.495 218.066 289.047 218.066C292.203 218.066 294.686 215.582 294.686 212.427C294.686 210.823 294.221 209.478 293.082 208.598C294.221 207.719 294.686 206.322 294.686 204.77C294.686 203.89 294.479 202.959 294.014 202.079C294.893 202.545 295.824 202.752 296.704 202.752C298.308 202.752 299.653 202.286 300.532 201.148C301.412 202.286 302.809 202.752 304.361 202.752C307.517 202.752 310 200.269 310 197.113C310 195.509 309.534 194.164 308.396 193.284C309.534 192.405 310 191.008 310 189.456V189.249C310 187.904 309.327 186.559 308.396 185.628C309.534 184.748 310 183.351 310 181.799C310 179.781 309.121 178.178 307.724 177.298C281.338 151.585 229.448 151.792 195.612 180.247L186.145 170.779C185.265 169.434 183.662 168.503 181.644 168.503H181.437C180.092 168.503 178.747 169.176 177.815 170.107C176.936 168.969 175.539 168.503 173.987 168.503C173.107 168.503 172.176 168.71 171.297 169.176C171.762 168.296 171.969 167.365 171.969 166.485V166.278C171.969 164.933 171.297 163.588 170.365 162.657C171.504 161.777 171.969 160.381 171.969 158.828V158.621C171.969 157.276 171.297 155.931 170.365 155C171.504 154.12 171.969 152.724 171.969 151.172V150.965C171.969 149.619 171.297 148.274 170.365 147.343C171.504 146.464 171.969 145.067 171.969 143.515C171.969 142.635 171.762 141.704 171.297 140.824C172.176 141.29 173.107 141.497 173.987 141.497C175.591 141.497 176.936 141.031 177.815 139.893C178.695 141.031 180.092 141.497 181.644 141.497C183.662 141.497 185.265 140.617 186.145 139.221L195.612 129.753C229.448 158.156 281.338 158.415 307.724 132.702C309.069 131.822 310 130.219 310 128.201C310 126.597 309.534 125.252 308.396 124.372C309.534 123.493 310 122.096 310 120.544V120.337C310 118.992 309.327 117.647 308.396 116.716C309.534 115.836 310 114.439 310 112.887C310 109.731 307.517 107.248 304.361 107.248C302.757 107.248 301.412 107.714 300.532 108.852C299.653 107.714 298.256 107.248 296.704 107.248C295.824 107.248 294.893 107.455 294.014 107.921C294.479 107.041 294.686 106.11 294.686 105.23C294.686 103.627 294.221 102.281 293.082 101.402C294.221 100.522 294.686 99.1255 294.686 97.5734C294.686 94.4176 292.203 91.9343 289.047 91.9343C287.443 91.9343 286.098 92.3999 285.219 93.5381C284.339 92.3999 282.942 91.9343 281.39 91.9343C280.511 91.9343 279.579 92.1412 278.7 92.6068C279.166 91.7273 279.373 90.7961 279.373 89.9166C279.373 88.3127 278.907 86.9676 277.769 86.0881C278.907 85.2086 279.373 83.8117 279.373 82.2597C279.373 79.1038 276.889 76.6205 273.733 76.6205C272.13 76.6205 270.784 77.0861 269.905 78.2243C269.025 77.3448 267.887 76.8792 266.749 76.6205C252.78 75.4823 239.019 77.7587 226.602 83.3979C232.241 70.9813 234.518 57.2196 233.379 43.251C233.173 42.1128 232.707 40.9746 231.776 40.0951C232.914 39.2156 233.379 37.8188 233.379 36.2667C233.379 33.1108 230.896 30.6275 227.74 30.6275C226.137 30.6275 224.791 31.0931 223.912 32.2313C223.032 31.0931 221.636 30.6275 220.083 30.6275C219.204 30.6275 218.273 30.8344 217.393 31.3001C217.859 30.4206 218.066 29.4893 218.066 28.6098C218.066 27.006 217.6 25.6609 216.462 24.7814C217.6 23.9019 218.066 22.505 218.066 20.9529C218.066 17.7971 215.582 15.3138 212.427 15.3138C210.823 15.3138 209.478 15.7794 208.598 16.9176C207.719 15.7794 206.322 15.3138 204.77 15.3138C203.89 15.3138 202.959 15.5207 202.079 15.9863C202.545 15.1068 202.752 14.1756 202.752 13.2961C202.752 11.6923 202.286 10.3471 201.148 9.46762C202.286 8.58812 202.752 7.19126 202.752 5.63919C202.752 2.48331 200.269 0 197.113 0C195.509 0 194.164 0.465621 193.284 1.60381C192.405 0.465621 191.008 0 189.456 0H189.249C187.904 0 186.559 0.672563 185.627 1.60381C184.748 0.465621 183.351 0 181.799 0C179.781 0 178.178 0.879506 177.298 2.27637C151.585 28.6615 151.792 80.5524 180.247 114.388L170.779 123.855C169.434 124.735 168.503 126.338 168.503 128.356C168.503 129.96 168.969 131.305 170.107 132.185C168.969 133.064 168.503 134.461 168.503 136.013C168.503 136.893 168.71 137.824 169.176 138.703C168.296 138.238 167.365 138.031 166.485 138.031H166.278C164.933 138.031 163.588 138.703 162.657 139.635C161.777 138.496 160.381 138.031 158.828 138.031H158.621C157.276 138.031 155.931 138.703 155 139.635C154.121 138.496 152.724 138.031 151.172 138.031H150.965C149.619 138.031 148.274 138.703 147.343 139.635C146.464 138.496 145.067 138.031 143.515 138.031C142.635 138.031 141.704 138.238 140.824 138.703C141.29 137.824 141.497 136.893 141.497 136.013V135.806C141.497 134.461 140.824 133.116 139.893 132.185C141.031 131.305 141.497 129.908 141.497 128.356C141.497 126.338 140.617 124.735 139.221 123.855L129.753 114.388C158.156 80.5524 158.415 28.6615 132.702 2.27637C131.822 0.931242 130.219 0 128.201 0C126.597 0 125.252 0.465621 124.373 1.60381C123.493 0.465621 122.096 0 120.544 0H120.337C118.992 0 117.647 0.672563 116.716 1.60381C115.836 0.465621 114.439 0 112.887 0C109.731 0 107.248 2.48331 107.248 5.63919C107.248 7.24299 107.714 8.58812 108.852 9.46762C107.714 10.3471 107.248 11.744 107.248 13.2961C107.248 14.1756 107.455 15.1068 107.921 15.9863C107.041 15.5207 106.11 15.3138 105.23 15.3138C103.627 15.3138 102.281 15.7794 101.402 16.9176C100.522 15.7794 99.1255 15.3138 97.5734 15.3138C94.4176 15.3138 91.9343 17.7971 91.9343 20.9529C91.9343 22.5567 92.3999 23.9019 93.5381 24.7814C92.3999 25.6609 91.9343 27.0577 91.9343 28.6098C91.9343 29.4893 92.1412 30.4206 92.6068 31.3001C91.7273 30.8344 90.7961 30.6275 89.9166 30.6275C88.3128 30.6275 86.9676 31.0931 86.0881 32.2313C85.2086 31.0931 83.8118 30.6275 82.2597 30.6275C79.1038 30.6275 76.6205 33.1108 76.6205 36.2667C76.6205 37.8705 77.0861 39.2156 78.2243 40.0951C77.3448 40.9746 76.8792 42.1128 76.6205 43.251C75.4823 57.2196 77.7587 70.9813 83.3979 83.3979C70.9813 77.7587 57.2196 75.4823 43.251 76.6205C42.1128 76.8274 40.9746 77.2931 40.0951 78.2243C39.2156 77.0861 37.8188 76.6205 36.2667 76.6205C33.1108 76.6205 30.6275 79.1038 30.6275 82.2597C30.6275 83.8635 31.0931 85.2086 32.2313 86.0881C31.0931 86.9676 30.6275 88.3645 30.6275 89.9166C30.6275 90.7961 30.8344 91.7273 31.3001 92.6068C30.4206 92.1412 29.4893 91.9343 28.6098 91.9343C27.006 91.9343 25.6609 92.3999 24.7814 93.5381C23.9019 92.3999 22.505 91.9343 20.9529 91.9343C17.7971 91.9343 15.3138 94.4176 15.3138 97.5734C15.3138 99.1772 15.7794 100.522 16.9176 101.402C15.7794 102.281 15.3138 103.678 15.3138 105.23C15.3138 106.11 15.5207 107.041 15.9863 107.921C15.1068 107.455 14.1756 107.248 13.2961 107.248C11.6923 107.248 10.3471 107.714 9.46762 108.852C8.58812 107.714 7.19126 107.248 5.63919 107.248C2.48331 107.248 0 109.731 0 112.887C0 114.491 0.465621 115.836 1.60381 116.716C0.465621 117.595 0 118.992 0 120.544C0 122.096 0.465621 123.493 1.60381 124.372C0.465621 125.252 0 126.649 0 128.201C0 130.219 0.879506 131.822 2.27637 132.702C28.6615 158.415 80.5524 158.208 114.388 129.753L123.855 139.221C124.735 140.566 126.338 141.497 128.356 141.497Z" fill="#0044F5"/>
</svg>
